<svg width="121" height="45" viewBox="0 0 121 45" fill="none" xmlns="http://www.w3.org/2000/svg">
<path d="M32.7933 10.7478C27.3399 10.7478 28.4734 16.8431 27.3233 39.1714C34.1197 36.1006 37.3182 49.2785 35.7933 39.7478C33.7933 27.2478 35.2933 18.2478 37.7933 16.2478C39.7933 14.6478 39.9599 19.9145 39.7933 22.7478L44.7933 20.7478C44.4599 18.5811 43.4933 13.7478 42.2933 11.7478C41.0933 9.7478 36.1266 12.5811 33.7933 14.2478L32.7933 10.7478Z" fill="#FBFBFF"/>
<path d="M27.2933 39.7478C28.4933 16.9478 27.2933 10.7478 32.7933 10.7478L33.7933 14.2478C36.1266 12.5811 41.0933 9.7478 42.2933 11.7478C43.4933 13.7478 44.4599 18.5811 44.7933 20.7478L39.7933 22.7478C39.9599 19.9145 39.7933 14.6478 37.7933 16.2478C35.2933 18.2478 33.7933 27.2478 35.7933 39.7478C37.3933 49.7478 33.7933 34.7478 26.2933 39.7478" stroke="#FBFBFF"/>
<path d="M107.5 11C102.047 11 103.18 17.0953 102.03 39.4236C108.826 36.3528 112.025 49.5307 110.5 40C108.5 27.5 110 18.5 112.5 16.5C114.5 14.9 114.667 20.1667 114.5 23L119.5 21C119.167 18.8333 118.2 14 117 12C115.8 10 110.833 12.8333 108.5 14.5L107.5 11Z" fill="#FBFBFF"/>
<path d="M102 40C103.2 17.2 102 11 107.5 11L108.5 14.5C110.833 12.8333 115.8 10 117 12C118.2 14 119.167 18.8333 119.5 21L114.5 23C114.667 20.1667 114.5 14.9 112.5 16.5C110 18.5 108.5 27.5 110.5 40C112.1 50 108.5 35 101 40" stroke="#FBFBFF"/>
<path d="M53.2933 15.2478C54.4599 23.5811 55.0933 40.2478 48.2933 40.2478V15.2478H45.2933V11.7478L48.2933 10.2478V4.2478L56.7933 1.7478L53.2933 11.7478H56.7933V15.2478H53.2933Z" fill="#FBFBFF" stroke="#FBFBFF"/>
<path d="M66.7933 2.7478H60.7933C60.1266 14.4145 58.2933 39.2478 58.2933 39.2478H66.7933C66.7933 39.2478 64.7933 13.2478 70.7933 15.7478C76.7933 18.2478 70.7933 41.2478 70.7933 41.2478H79.2933C80.1266 35.7478 80.9933 22.7478 77.7933 14.7478C73.7933 4.7478 66.7933 15.2478 66.7933 14.7478V2.7478Z" fill="#FBFBFF" stroke="#FBFBFF"/>
<path d="M83.7933 11.7476C85.3172 10.8723 88.2933 11.7476 88.2933 11.7476V33.7476C90.7765 36.1773 91.9413 35.4934 93.7933 32.2476V11.7476C95.9412 11.1233 97.1454 11.1824 99.2933 11.7476V39.7476C93.2542 41.0881 89.8617 41.0138 83.8343 39.7562C83.8213 39.7552 83.8076 39.7523 83.7933 39.7476C83.807 39.7505 83.8207 39.7534 83.8343 39.7562C85.3625 39.8779 78.0011 15.0747 83.7933 11.7476Z" fill="#FBFBFF"/>
<path d="M83.7933 11.7476C85.3172 10.8723 88.2933 11.7476 88.2933 11.7476V33.7476C90.7765 36.1773 91.9413 35.4934 93.7933 32.2476V11.7476C95.9412 11.1233 97.1454 11.1824 99.2933 11.7476V39.7476C93.2405 41.0911 89.8464 41.0134 83.7933 39.7476C85.4889 40.3021 77.9517 15.1031 83.7933 11.7476Z" stroke="#FBFBFF"/>
<path d="M9.79345 1.74714C-2.20673 8.7478 0.960118 27.7471 2.79345 40.7471L11.2935 39.2471L9.79345 21.747L14.7934 19.747V39.2471H24.2934C24.2934 39.2471 21.7936 -5.25352 9.79345 1.74714Z" fill="#FBFBFF" stroke="#FBFBFF"/>
<path d="M16.5 14.9999C16.5 16.9999 10.1667 18.1666 7 18.4999C6.83333 13.8332 7.4 4.59989 11 4.99989C15.5 5.49989 16.5 12.4999 16.5 14.9999Z" fill="#588C96" stroke="#FBFBFF"/>
</svg>
